<svg xmlns="http://www.w3.org/2000/svg" aria-hidden="true" style="position:absolute;width:0;height:0;overflow:hidden">
  <defs>
    <symbol id="features-design-icon" viewBox="0 0 32 32">
      <path fill="#fff" d="M31.063 0H27.25a.937.937 0 0 0-.937.938v.938H18.64C18.252.787 17.221.001 16 .001s-2.252.786-2.64 1.875H5.687V.938A.937.937 0 0 0 4.749 0H.936a.937.937 0 0 0-.938.938v3.75c0 .518.419.938.938.938h3.813a.937.937 0 0 0 .938-.938v-.95h3.85C6.283 5.771 4.138 9.34 3.882 13.339a2.806 2.806 0 0 0-1.945 2.662c0 1.551 1.262 2.812 2.813 2.812s2.813-1.262 2.813-2.812a2.81 2.81 0 0 0-1.809-2.619c.32-4.458 3.43-8.215 7.757-9.287C13.979 5 14.913 5.626 16 5.626S18.021 5 18.489 4.095c4.327 1.072 7.437 4.829 7.757 9.287a2.81 2.81 0 0 0-1.809 2.619c0 1.551 1.262 2.812 2.812 2.812s2.813-1.262 2.813-2.812c0-1.246-.82-2.293-1.945-2.662-.256-3.998-2.402-7.556-5.655-9.588h3.85v.938c0 .518.419.938.937.938h3.813a.937.937 0 0 0 .937-.938V.939a.937.937 0 0 0-.937-.938zM22.378 30.837c-.49-1.501-1.903-2.65-3.566-2.65h-5.625c-1.663 0-3.075 1.149-3.566 2.65-.189.579.303 1.163.912 1.163h10.932c.609 0 1.101-.584.912-1.163z" style="fill:var(--color1, #fff)"/>
      <path fill="#fff" d="M24.28 19.23 16.938 8.216v8.894a2.807 2.807 0 0 1 1.875 2.64c0 1.551-1.262 2.812-2.812 2.812s-2.812-1.262-2.812-2.812c0-1.221.786-2.252 1.875-2.64V8.216L7.721 19.23a.937.937 0 0 0 .117 1.183c1.721 1.721 2.821 3.938 3.246 6.317a5.588 5.588 0 0 1 2.105-.417h5.625c.745 0 1.453.153 2.105.417.425-2.378 1.525-4.595 3.246-6.316a.937.937 0 0 0 .117-1.183z" style="fill:var(--color1, #fff)"/>
      <path fill="#fff" d="M16 18.812a.938.938 0 1 0 .002 1.876.938.938 0 0 0-.002-1.876z" style="fill:var(--color1, #fff)"/>
    </symbol>
    <symbol id="post-comment-upvote-icon" viewBox="0 0 32 32">
      <path d="m16 14.437-6.6 6.6-1.885-1.885L16 10.667l8.485 8.485-1.885 1.885-6.6-6.6z"/>
    </symbol>
    <symbol id="post-comment-downvote-icon" viewBox="0 0 32 32">
      <path d="m16 17.563 6.6-6.6 1.885 1.885L16 21.333l-8.485-8.485L9.4 10.963l6.6 6.6z"/>
    </symbol>
    <symbol id="post-dropdown-icon" viewBox="0 0 32 32">
      <path d="m16 21.333-8-8h16l-8 8z"/>
    </symbol>
    <symbol id="post-heart-icon" viewBox="0 0 32 32">
      <path d="M16.001 6.039c3.132-2.812 7.972-2.719 10.989.304a8.001 8.001 0 0 1 .315 10.981L15.998 28.647 4.694 17.324A8 8 0 0 1 16.001 6.039z"/>
    </symbol>
    <symbol id="post-gwen-icon" viewBox="0 0 32 32">
      <path d="M8.466 30.118 0 32l1.882-8.466A15.931 15.931 0 0 1 0 16C0 7.163 7.163 0 16 0s16 7.163 16 16-7.163 16-16 16a15.916 15.916 0 0 1-7.534-1.882z"/>
    </symbol>
    <symbol id="post-comments-icon" viewBox="0 0 32 32">
      <path d="M8 15.999a1.6 1.6 0 1 1 3.202.002A1.6 1.6 0 0 1 8 15.999zm8-1.6a1.6 1.6 0 1 0 .002 3.202A1.6 1.6 0 0 0 16 14.399zm6.4 0a1.6 1.6 0 1 0 .002 3.202 1.6 1.6 0 0 0-.002-3.202zm6.238 3.672c-.811 5.206-5.008 9.525-10.206 10.499-2.51.474-5.067.203-7.387-.779a5.155 5.155 0 0 0-2.005-.419c-.304 0-.605.029-.901.088l-4.499.899.901-4.507c.189-.936.074-1.938-.331-2.896a12.82 12.82 0 0 1-.779-7.387C4.405 8.371 8.722 4.174 13.93 3.363c4.144-.645 8.197.661 11.122 3.586 2.926 2.926 4.234 6.981 3.587 11.123zM27.315 4.685C23.659 1.031 18.603-.6 13.437.199 6.914 1.217 1.506 6.471.285 12.978a16.004 16.004 0 0 0 .978 9.224c.155.37.203.714.142 1.022L.032 30.085A1.595 1.595 0 0 0 .47 31.53a1.592 1.592 0 0 0 1.445.439l6.853-1.371c.394-.075.774.035 1.029.141a16.034 16.034 0 0 0 9.224.978c6.509-1.221 11.763-6.629 12.781-13.152.803-5.163-.83-10.222-4.486-13.878z"/>
    </symbol>
    <symbol id="post-author-icon" viewBox="0 0 32 32">
      <path d="M19.556 7.111c0-1.961-1.595-3.556-3.556-3.556s-3.556 1.595-3.556 3.556 1.595 3.556 3.556 3.556 3.556-1.595 3.556-3.556zm3.555 0c0 3.922-3.189 7.111-7.111 7.111s-7.111-3.189-7.111-7.111C8.889 3.189 12.078 0 16 0s7.111 3.189 7.111 7.111zM3.556 30.222C3.556 23.36 9.14 17.778 16 17.778s12.444 5.582 12.444 12.444a1.778 1.778 0 1 1-3.556 0c0-4.901-3.988-8.889-8.889-8.889S7.11 25.321 7.11 30.222a1.778 1.778 0 1 1-3.556 0z"/>
    </symbol>
    <symbol id="post-clock-icon" viewBox="0 0 32 32">
      <path d="M20.571 16.762h-3.048v-3.048a1.524 1.524 0 1 0-3.048 0v4.571c0 .843.683 1.524 1.524 1.524h4.571a1.524 1.524 0 1 0 0-3.048zM16 28.571c-5.672 0-10.286-4.614-10.286-10.286S10.328 7.999 16 7.999s10.286 4.614 10.286 10.286S21.672 28.571 16 28.571zM17.506 4.66c.003-.032.018-.056.018-.088V3.048h1.524a1.524 1.524 0 1 0 0-3.048h-6.095a1.524 1.524 0 1 0 0 3.048h1.524v1.524c0 .032.015.056.018.088-6.856.753-12.209 6.574-12.209 13.626C2.286 25.849 8.439 32 16 32s13.714-6.152 13.714-13.714c0-7.052-5.353-12.873-12.209-13.626z"/>
    </symbol>
    <symbol id="menu-close-icon" viewBox="0 0 32 32">
      <path fill="#fff" d="m16 14.115 6.6-6.6L24.485 9.4l-6.6 6.6 6.6 6.6-1.885 1.885-6.6-6.6-6.6 6.6L7.515 22.6l6.6-6.6-6.6-6.6L9.4 7.515l6.6 6.6z" style="fill:var(--color1, #fff)"/>
    </symbol>
    <symbol id="header-menu-icon" viewBox="0 0 32 32">
      <path d="M4 5.333h24V8H4V5.333zm0 9.334h24v2.667H4v-2.667zM4 24h24v2.667H4V24z"/>
    </symbol>
    <symbol id="hero-home-icon" viewBox="0 0 32 32">
      <path fill="#fff" d="M26.667 26.667a1.335 1.335 0 0 1-1.334 1.334H6.666a1.335 1.335 0 0 1-1.334-1.334v-12h-4L15.101 2.15a1.333 1.333 0 0 1 1.794 0l13.769 12.517h-4v12z" style="fill:var(--color1, #fff)"/>
    </symbol>
    <symbol id="blog-category-list-icon" viewBox="0 0 32 32">
      <path d="m21.333 16-8 8V8l8 8z"/>
    </symbol>
    <symbol id="search-icon" viewBox="0 0 32 32">
      <path d="m24.041 22.156 5.711 5.709-1.887 1.887-5.709-5.711a11.945 11.945 0 0 1-7.489 2.625c-6.624 0-12-5.376-12-12s5.376-12 12-12 12 5.376 12 12a11.943 11.943 0 0 1-2.625 7.489zm-2.674-.989a9.302 9.302 0 0 0 2.633-6.5 9.33 9.33 0 0 0-9.333-9.333 9.33 9.33 0 0 0-9.333 9.333A9.33 9.33 0 0 0 14.667 24a9.302 9.302 0 0 0 6.5-2.633l.2-.2z"/>
    </symbol>
    <symbol id="button-send-icon" viewBox="0 0 32 32">
      <path fill="#fff" d="M4 17.333h8v-2.667H4V2.461a.676.676 0 0 1 .657-.667.675.675 0 0 1 .332.082l24.616 13.539a.675.675 0 0 1 .345.584.662.662 0 0 1-.345.584L4.989 30.122a.673.673 0 0 1-.661-.01.669.669 0 0 1-.328-.574V17.333z" style="fill:var(--color1, #fff)"/>
    </symbol>
    <symbol id="copyright-icon" viewBox="0 0 32 32">
      <path fill="#fff" d="M16 2.667c7.36 0 13.333 5.973 13.333 13.333S23.36 29.333 16 29.333 2.667 23.36 2.667 16 8.64 2.667 16 2.667zm0 2.666C10.107 5.333 5.333 10.106 5.333 16S10.106 26.667 16 26.667c5.893 0 10.667-4.773 10.667-10.667S21.894 5.333 16 5.333zm0 4a6.661 6.661 0 0 1 5.717 3.237l-2.285 1.372a4.006 4.006 0 0 0-5.466-1.386 4 4 0 1 0 5.463 5.502l2.287 1.371a6.663 6.663 0 0 1-7.498 2.999 6.666 6.666 0 0 1-4.887-6.429 6.67 6.67 0 0 1 6.667-6.667z" style="fill:var(--color1, #fff)"/>
    </symbol>
    <symbol id="play-button-icon" viewBox="0 0 32 32">
      <path d="M4 5.324C4 4.593 4.593 4 5.324 4h21.352C27.407 4 28 4.593 28 5.324v21.352A1.325 1.325 0 0 1 26.676 28H5.324A1.325 1.325 0 0 1 4 26.676V5.324zm10.163 5.896a.53.53 0 0 0-.547-.027.531.531 0 0 0-.282.47v8.675a.541.541 0 0 0 .282.47.534.534 0 0 0 .547-.027l6.505-4.336a.526.526 0 0 0 .175-.696.52.52 0 0 0-.175-.192l-6.505-4.336z"/>
    </symbol>
    <symbol id="star-icon" viewBox="0 0 32 32">
      <path fill="#fff" d="M16 24.346 6.596 29.61l2.1-10.571-7.913-7.317 10.703-1.269L16.001.666l4.515 9.787 10.703 1.269-7.913 7.317 2.1 10.571-9.404-5.264z" style="fill:var(--color1, #fff)"/>
    </symbol>
    <symbol id="thumb-up-icon" viewBox="0 0 32 32">
      <path fill="#fff" d="M2.667 12h4v16h-4a1.334 1.334 0 0 1-1.334-1.334V13.333A1.33 1.33 0 0 1 2.667 12zm7.057-1.724 8.533-8.533a.661.661 0 0 1 .872-.062l1.137.853a2.002 2.002 0 0 1 .738 2.093l-1.537 6.04H28a2.668 2.668 0 0 1 2.667 2.667v2.805c0 .349-.068.694-.2 1.016l-4.127 10.02a1.332 1.332 0 0 1-1.233.825h-14.44a1.334 1.334 0 0 1-1.334-1.334V11.218c0-.354.141-.693.391-.943z" style="fill:var(--color1, #fff)"/>
    </symbol>
    <symbol id="download-icon" viewBox="0 0 32 32">
      <path fill="#fff" d="M5.333 25.333h21.333V16h2.667v10.667A1.334 1.334 0 0 1 27.999 28h-24a1.333 1.333 0 0 1-1.334-1.333V16h2.667v9.333zM18.667 12h6.667l-9.333 9.333L6.668 12h6.667V4h5.333v8z" style="fill:var(--color1, #fff)"/>
    </symbol>
    <symbol id="slider-dot-icon" viewBox="0 0 32 32">
      <path d="M32 16c0 8.837-7.163 16-16 16s-16-7.163-16-16c0-8.837 7.163-16 16-16s16 7.163 16 16z"></path>
    </symbol>
    <symbol id="slider-dot-active-icon" viewBox="0 0 32 32">
      <path stroke-linejoin="miter" stroke-linecap="butt" stroke-miterlimit="4" stroke-width="0.8" d="M31.6 16c0 8.616-6.984 15.6-15.6 15.6s-15.6-6.984-15.6-15.6c0-8.616 6.984-15.6 15.6-15.6s15.6 6.984 15.6 15.6z"></path>
    </symbol>
    <symbol id="interface-arow-left" viewBox="0 0 32 32">
      <path d="m14.437 16 6.6 6.6-1.885 1.885L10.667 16l8.485-8.485L21.037 9.4l-6.6 6.6z"/>
    </symbol>
    <symbol id="interface-arow-right" viewBox="0 0 32 32">
      <path fill="#fff" d="m17.563 16-6.6-6.6 1.885-1.885L21.333 16l-8.485 8.485-1.885-1.885 6.6-6.6z" style="fill:var(--color1, #fff)"/>
    </symbol>
    <symbol id="features-support-icon" viewBox="0 0 27 32">
      <path fill="#fff" d="M7.28 14.256c1.465 3.234 4.603 4.642 6.16 4.642 1.024 0 2.731-.609 4.197-1.945a25.032 25.032 0 0 1-2.176.052 1.784 1.784 0 0 1-1.087.372H13.07c-.983 0-1.782-.8-1.782-1.782s.8-1.782 1.782-1.782h1.304c.471 0 .912.184 1.239.5l.321.002c1.684 0 2.793-.154 3.519-.341a1.95 1.95 0 0 1-.145-.741V8.714c0-.47.175-.921.476-1.269-.161-1.253-.453-2.21-.889-2.916-.899-1.455-2.631-2.132-5.453-2.132-2.34 0-3.957.486-4.941 1.485-.763.775-1.205 1.88-1.412 3.55.308.349.487.805.487 1.282v4.519c0 .376-.108.727-.294 1.024z" style="fill:var(--color1, #fff)"/>
      <path fill="#fff" d="M4.073 14.299h1.565c.589 0 1.067-.478 1.067-1.067V8.713c0-.394-.214-.737-.531-.922.349-3.701 1.777-6.265 7.266-6.265 3.152 0 5.12.809 6.192 2.545.624 1.01.924 2.315 1.065 3.726a1.065 1.065 0 0 0-.522.916v4.519c0 .508.355.932.831 1.04-.69.451-2.117.912-5.074.912-.239 0-.489-.003-.749-.009a.912.912 0 0 0-.81-.493h-1.304a.913.913 0 0 0 0 1.826h1.304c.305 0 .574-.15.74-.379.275.007.543.011.803.011 3.332 0 5.451-.569 6.309-1.697.037-.048.07-.096.1-.143h.482c.589 0 1.067-.478 1.067-1.067V8.714c0-.589-.478-1.067-1.067-1.067h-.588c-.166-1.705-.533-3.156-1.287-4.378C19.573 1.07 17.123.001 13.441.001S7.309 1.07 5.95 3.269C5.195 4.49 4.828 5.942 4.663 7.647h-.588c-.589 0-1.067.478-1.067 1.067v4.519c0 .589.478 1.067 1.067 1.067zM26.338 27.588c-.355-2.206-1.085-5.047-2.55-6.056-.999-.689-4.485-2.552-5.974-3.347l-.031-.017a.487.487 0 0 0-.53.046 6.339 6.339 0 0 1-2.541 1.228.49.49 0 0 0-.35.303l-.922 2.431-.922-2.431a.49.49 0 0 0-.35-.303 6.323 6.323 0 0 1-2.542-1.228.485.485 0 0 0-.53-.046c-1.472.787-5.004 2.688-6.001 3.361C1.408 22.665.672 26.776.541 27.588a.49.49 0 0 0 .022.24C.623 27.998 2.17 32 13.44 32s12.816-4.002 12.877-4.172a.49.49 0 0 0 .022-.24zm-5.247-2.533h-4.463v-.94h4.463v.94z" style="fill:var(--color1, #fff)"/>
    </symbol>
    <symbol id="features-retina-icon" viewBox="0 0 32 32">
      <path fill="#fff" style="fill: var(--color1, #fff)" d="M31.871 16.492c-3.597 6.371-9.531 10.175-15.871 10.175s-12.273-3.804-15.871-10.175c-0.172-0.305-0.172-0.677 0-0.983 3.597-6.372 9.531-10.176 15.871-10.176s12.273 3.804 15.871 10.175c0.172 0.305 0.172 0.679 0 0.984zM16 10.667c-2.941 0-5.333 2.392-5.333 5.333s2.392 5.333 5.333 5.333c2.941 0 5.333-2.392 5.333-5.333s-2.392-5.333-5.333-5.333z"></path>
      <path fill="#fff" style="fill: var(--color1, #fff)" d="M30.667 21.333c-0.736 0-1.333 0.597-1.333 1.333v5.333c0 0.735-0.599 1.333-1.333 1.333h-5.333c-0.736 0-1.333 0.597-1.333 1.333s0.597 1.333 1.333 1.333h5.333c2.205 0 4-1.795 4-4v-5.333c0-0.736-0.597-1.333-1.333-1.333z"></path>
      <path fill="#fff" style="fill: var(--color1, #fff)" d="M1.333 21.333c-0.736 0-1.333 0.597-1.333 1.333v5.333c0 2.205 1.795 4 4 4h5.333c0.736 0 1.333-0.597 1.333-1.333s-0.597-1.333-1.333-1.333h-5.333c-0.735 0-1.333-0.599-1.333-1.333v-5.333c0-0.736-0.597-1.333-1.333-1.333z"></path>
      <path fill="#fff" style="fill: var(--color1, #fff)" d="M28 0h-5.333c-0.736 0-1.333 0.597-1.333 1.333s0.597 1.333 1.333 1.333h5.333c0.735 0 1.333 0.599 1.333 1.333v5.333c0 0.736 0.597 1.333 1.333 1.333s1.333-0.597 1.333-1.333v-5.333c0-2.205-1.795-4-4-4z"></path>
      <path fill="#fff" style="fill: var(--color1, #fff)" d="M9.333 0h-5.333c-2.205 0-4 1.795-4 4v5.333c0 0.736 0.597 1.333 1.333 1.333s1.333-0.597 1.333-1.333v-5.333c0-0.735 0.599-1.333 1.333-1.333h5.333c0.736 0 1.333-0.597 1.333-1.333s-0.597-1.333-1.333-1.333z"></path>
    </symbol>
    <symbol id="features-version-icon" viewBox="0 0 19 32">
      <path fill="#fff" d="M16.332 0H2.868A2.33 2.33 0 0 0 .539 2.331v27.34A2.328 2.328 0 0 0 2.868 32h13.464a2.33 2.33 0 0 0 2.329-2.329V2.331A2.331 2.331 0 0 0 16.332 0zM6.278 1.416h6.647c.168 0 .304.251.304.561s-.136.562-.304.562H6.278c-.169 0-.303-.252-.303-.562s.134-.561.303-.561zm3.323 28.283a1.487 1.487 0 0 1 0-2.974 1.486 1.486 0 0 1 0 2.974zm7.315-5.094H2.285V3.934h14.631v20.671z" style="fill:var(--color1, #fff)"/>
    </symbol>
    <symbol id="features-features-icon" viewBox="0 0 32 32">
      <path fill="#fff" d="M14.125 16h.938v-.937a.939.939 0 0 0-1.875 0c0 .517.42.937.937.937zM15.063 17.875H12.25a.938.938 0 0 0-.937.937v.938h3.75v-1.875zM18.812 15.063a.938.938 0 0 0-1.875 0V16h.938c.517 0 .937-.42.937-.937zM15.063 21.625h-1.875v3.75h5.625v-3.75h-1.875v.937a.937.937 0 1 1-1.874 0v-.937z" style="fill:var(--color1, #fff)"/>
      <path fill="#fff" d="M0 28.188A2.815 2.815 0 0 0 2.813 31h26.375A2.815 2.815 0 0 0 32 28.188V10.375H0v17.813zm9.438-9.376c0-1.296.886-2.38 2.082-2.704a2.783 2.783 0 0 1-.207-1.046 2.816 2.816 0 0 1 2.812-2.813c.723 0 1.376.282 1.875.731a2.79 2.79 0 0 1 1.875-.731 2.815 2.815 0 0 1 2.812 2.813c0 .37-.076.722-.207 1.046a2.81 2.81 0 0 1 2.082 2.704v1.875a.937.937 0 0 1-.937.938h-.938v4.688a.936.936 0 0 1-.937.937h-7.5a.936.936 0 0 1-.937-.937v-4.688h-.938a.937.937 0 0 1-.937-.938v-1.875z" style="fill:var(--color1, #fff)"/>
      <path fill="#fff" d="M20.688 18.812a.938.938 0 0 0-.937-.937h-2.813v1.875h3.75v-.938zM29.188 1H2.813A2.816 2.816 0 0 0 0 3.813V8.5h32V3.813A2.816 2.816 0 0 0 29.188 1zM4.686 6.625a.938.938 0 1 1 0-1.876.938.938 0 0 1 0 1.876zm3.812 0a.938.938 0 1 1 0-1.876.938.938 0 0 1 0 1.876zm3.75 0a.938.938 0 1 1 0-1.876.938.938 0 0 1 0 1.876zm15.065 0h-5.688a.937.937 0 1 1 0-1.876h5.688c.518 0 .937.419.937.938s-.419.938-.937.938z" style="fill:var(--color1, #fff)"/>
    </symbol>
    <symbol id="features-chat-icon" viewBox="0 0 32 32">
      <path fill="#fff" d="M26.86 2.156H5.109A4.129 4.129 0 0 0 .985 6.28v13.311a4.128 4.128 0 0 0 4.11 4.124v6.041l8.68-6.04H26.86a4.129 4.129 0 0 0 4.124-4.125V6.28a4.129 4.129 0 0 0-4.124-4.124zm-3.905 15.47H9.014v-1.758h13.941v1.758zm0-3.75H9.014v-1.758h13.941v1.758zm0-3.75H9.014V8.368h13.941v1.758z" style="fill:var(--color1, #fff)"/>
    </symbol>
    <symbol id="about-list-item-icon" viewBox="0 0 32 32">
      <path d="M16 29.333C8.636 29.333 2.667 23.364 2.667 16S8.636 2.667 16 2.667 29.333 8.636 29.333 16 23.364 29.333 16 29.333zm-1.329-8 9.427-9.428-1.885-1.885-7.541 7.543-3.772-3.772-1.885 1.885 5.657 5.657z"/>
    </symbol>
    <symbol id="youtube-icon" viewBox="0 0 32 32">
      <path fill="#fff" d="M28.724 8.664c.609 2.376.609 7.336.609 7.336s0 4.96-.609 7.336c-.339 1.313-1.329 2.347-2.584 2.696-2.279.635-10.14.635-10.14.635s-7.857 0-10.14-.635c-1.26-.355-2.249-1.387-2.584-2.696C2.667 20.96 2.667 16 2.667 16s0-4.96.609-7.336c.339-1.313 1.329-2.347 2.584-2.696C8.143 5.333 16 5.333 16 5.333s7.861 0 10.14.635c1.26.355 2.249 1.387 2.584 2.696zM13.333 20.667l8-4.667-8-4.667v9.333z" style="fill:var(--color1, #fff)"/>
    </symbol>
    <symbol id="twitter-icon" viewBox="0 0 32 32">
      <path fill="#fff" d="M29.549 7.541c-1.018.45-2.097.746-3.203.877a5.593 5.593 0 0 0 2.453-3.085 11.118 11.118 0 0 1-3.541 1.353 5.58 5.58 0 0 0-6.705-1.109 5.577 5.577 0 0 0-2.796 6.194A15.826 15.826 0 0 1 4.264 5.944a5.557 5.557 0 0 0-.755 2.804c0 1.933.984 3.641 2.48 4.641a5.562 5.562 0 0 1-2.525-.697v.069a5.58 5.58 0 0 0 4.473 5.468 5.617 5.617 0 0 1-2.52.096 5.58 5.58 0 0 0 5.209 3.873 11.198 11.198 0 0 1-8.254 2.309 15.783 15.783 0 0 0 8.547 2.507c10.257 0 15.867-8.497 15.867-15.867 0-.24-.007-.483-.017-.72a11.334 11.334 0 0 0 2.783-2.887l-.001-.001z" style="fill:var(--color1, #fff)"/>
    </symbol>
    <symbol id="instagram-icon" viewBox="0 0 32 32">
      <path fill="#fff" d="M16 2.667c3.623 0 4.075.013 5.496.08 1.42.067 2.387.289 3.237.62a6.51 6.51 0 0 1 2.363 1.537 6.538 6.538 0 0 1 1.537 2.363c.329.849.553 1.817.62 3.237.063 1.421.08 1.873.08 5.496s-.013 4.075-.08 5.496c-.067 1.42-.291 2.387-.62 3.237a6.53 6.53 0 0 1-1.537 2.363 6.55 6.55 0 0 1-2.363 1.537c-.849.329-1.817.553-3.237.62-1.421.063-1.873.08-5.496.08s-4.075-.013-5.496-.08c-1.42-.067-2.387-.291-3.237-.62a6.53 6.53 0 0 1-2.363-1.537 6.53 6.53 0 0 1-1.537-2.363c-.331-.849-.553-1.817-.62-3.237-.063-1.421-.08-1.873-.08-5.496s.013-4.075.08-5.496.289-2.387.62-3.237a6.516 6.516 0 0 1 1.537-2.363 6.53 6.53 0 0 1 2.363-1.537c.851-.331 1.816-.553 3.237-.62 1.421-.063 1.873-.08 5.496-.08zm0 6.666a6.67 6.67 0 0 0-4.714 11.381 6.67 6.67 0 0 0 9.428 0A6.668 6.668 0 0 0 16 9.333zM24.667 9a1.667 1.667 0 1 0-3.334 0 1.667 1.667 0 0 0 3.334 0zM16 12a4.003 4.003 0 0 1 4 4 4.001 4.001 0 0 1-6.828 2.828 4.001 4.001 0 0 1 0-5.656A4.001 4.001 0 0 1 16 12z" style="fill:var(--color1, #fff)"/>
    </symbol>
    <symbol id="facebook-icon" viewBox="0 0 32 32">
      <path fill="#fff" d="M18.667 18H22l1.333-5.333h-4.667V10c0-1.373 0-2.667 2.667-2.667h2v-4.48c-.435-.057-2.076-.187-3.809-.187-3.62 0-6.191 2.209-6.191 6.267v3.733h-4v5.333h4v11.333h5.333V17.999z" style="fill:var(--color1, #fff)"/>
    </symbol>
    <symbol id="phone-icon" viewBox="0 0 32 32">
      <path fill="#fff" d="M28 21.893v4.715a1.335 1.335 0 0 1-1.24 1.331c-.583.04-1.059.061-1.427.061C13.55 28 4 18.449 4 6.667c0-.368.02-.844.061-1.427A1.334 1.334 0 0 1 5.392 4h4.715a.67.67 0 0 1 .664.6c.031.307.059.551.085.736a18.53 18.53 0 0 0 1.611 5.335.607.607 0 0 1-.196.756l-2.877 2.056a17.395 17.395 0 0 0 9.125 9.125l2.053-2.872a.62.62 0 0 1 .764-.199 18.551 18.551 0 0 0 5.333 1.607c.185.027.429.056.733.085a.668.668 0 0 1 .598.664h-.001z" style="fill:var(--color1, #fff)"/>
    </symbol>
    <symbol id="email-icon-white" viewBox="0 0 32 32">
      <path fill="#fff" d="M4 4h24a1.335 1.335 0 0 1 1.334 1.334v21.333A1.335 1.335 0 0 1 28 28.001H4a1.335 1.335 0 0 1-1.334-1.334V5.334A1.335 1.335 0 0 1 4 4zm12.08 11.577-8.549-7.26-1.727 2.032 10.293 8.74 10.108-8.747-1.744-2.017-8.381 7.252z" style="fill:var(--color1, #fff)"/>
    </symbol>
    <symbol id="email-icon" viewBox="0 0 24 32">
      <path d="M20 8H4c-1.1 0-1.99.9-1.99 2L2 22c0 1.1.9 2 2 2h16c1.1 0 2-.9 2-2V10c0-1.1-.9-2-2-2zm-.4 4.25-7.07 4.42c-.32.2-.74.2-1.06 0L4.4 12.25a.85.85 0 1 1 .9-1.44L12 15l6.7-4.19a.85.85 0 1 1 .9 1.44z"/>
    </symbol>
    <symbol id="logo-icon" viewBox="0 0 191 32">
      <path fill="#5956e9" style="fill: var(--color1, #5956e9)" d="M7.277 32.286c0.157-0.764 0.379-1.565 0.756-2.284 0.6-1.146 1.302-2.239 1.965-3.351 1.038-1.739 2.092-3.469 3.117-5.216 0.761-1.298 1.487-2.616 2.253-3.97 4.661 0 9.363 0 13.901 0 1.254 1.95 2.488 3.815 3.659 5.72 0.43 0.699 0.652 1.525 1.070 2.234 1.204 2.040 2.465 4.047 3.685 6.078 0.086 0.143 0.024 0.374 0.031 0.677-10.101 0.113-20.202 0.113-30.437 0.113z"></path>
      <path fill="#232232" style="fill: var(--color2, #232232)" d="M191.143 5.314c-0.631 1.012-1.343 1.864-1.879 2.815-2.145 3.814-4.295 7.629-6.307 11.513-0.559 1.080-0.749 2.388-0.927 3.618-0.148 1.025-0.029 2.089-0.031 3.135-0.003 2.193-0.003 2.193-2.196 2.184-2.014-0.008-2.079-0.074-2.089-2.086-0.001-0.143-0.022-0.289 0.003-0.428 0.76-4.27-1.322-7.674-3.324-11.129-1.754-3.026-3.427-6.1-5.093-9.176-0.518-0.957-0.066-1.731 0.993-1.726 4.394 0.021 3.726-0.552 5.54 3.123 1.268 2.568 2.653 5.078 4.117 7.864 0.999-1.813 1.916-3.431 2.787-5.073 0.712-1.344 1.403-2.702 2.040-4.083 0.606-1.314 1.523-2.008 3.017-1.854 1.035 0.107 2.076 0.159 3.232 0.255 0.118 0.324 0.118 0.629 0.118 1.048z"></path>
      <path fill="#5956e9" style="fill: var(--color1, #5956e9)" d="M0.286 31.286c0.215-0.473 0.449-0.792 0.642-1.134 1.715-3.036 3.417-6.079 5.137-9.112 0.553-0.974 1.1-1.958 1.753-2.863 0.255-0.354 0.777-0.677 1.203-0.714 1.127-0.099 2.268-0.033 3.741-0.033-0.577 1.262-0.993 2.374-1.571 3.394-1.204 2.125-2.487 4.206-3.75 6.298-0.757 1.255-1.553 2.487-2.297 3.749-0.222 0.377-0.33 0.821-0.389 1.325-1.184 0.090-2.48-0.006-3.753 0.122-0.906 0.091-0.704-0.417-0.718-1.032z"></path>
      <path fill="#5956e9" style="fill: var(--color1, #5956e9)" d="M19.592 0.286c0.529 0.743 0.983 1.464 1.319 2.237 0.143 0.33 0.185 0.847 0.024 1.144-1.634 3.017-3.318 6.007-4.992 9.001-1.293 2.313-3.225 3.101-5.882 2.257-0.006-0.069-0.12-0.34-0.031-0.495 1.775-3.101 3.581-6.184 5.365-9.28 0.885-1.536 1.737-3.090 2.605-4.75 0.49-0.114 0.98-0.114 1.592-0.114z"></path>
      <path fill="#232233" style="fill: var(--color3, #232233)" d="M111.644 27.504c-5.968-3.094-8.39-11.2-4.496-17.749 3.038-5.11 10.371-8.070 17.438-3.676 5.122 3.185 7.031 10.422 4.099 16.352-3.054 6.178-11.469 8.416-17.041 5.073zM115.768 24.249c2.468 0.241 4.835 0.030 6.803-1.691 3.048-2.666 3.53-7.233 1.222-10.683-1.346-2.012-3.39-3.337-5.742-3.47-1.638-0.093-3.357 0.537-4.847 1.595-2.262 1.605-4.045 6.236-2.773 8.984 1.118 2.417 2.672 4.189 5.338 5.265z"></path>
      <path fill="#232233" style="fill: var(--color3, #232233)" d="M67.17 27.573c-0.017-7.261-0.027-14.393-0.022-21.526 0.001-1.746 0.274-2.085 1.962-2.009 2.875 0.129 5.773 0.196 8.607 0.635 2.188 0.339 3.729 1.818 4.824 3.836 1.668 3.072 0.576 8.155-1.454 9.836-1.658 1.373-3.503 2.032-5.728 1.98-3.853-0.090-3.309-0.533-3.356 3.266-0.015 1.236-0.030 2.473 0.001 3.709 0.023 0.913-0.379 1.308-1.278 1.279-0.76-0.024-1.541 0.096-2.275-0.046-0.459-0.088-0.848-0.542-1.281-0.96zM77.636 9.939c-0.927-0.921-4.129-1.553-5.143-0.945-0.255 0.153-0.452 0.608-0.461 0.929-0.045 1.756-0.053 3.515 0.003 5.271 0.011 0.347 0.275 0.861 0.563 0.993 1.277 0.589 4.189-0.315 5.188-1.523 1.091-1.319 1.096-2.816-0.151-4.726z"></path>
      <path fill="#232233" style="fill: var(--color3, #232233)" d="M46.648 18.352c1.515-3.664 2.989-7.223 4.463-10.781 0.432-1.044 0.819-2.111 1.321-3.12 0.188-0.379 0.618-0.816 0.987-0.867 0.261-0.036 0.735 0.476 0.893 0.84 2.256 5.175 4.482 10.362 6.698 15.554 0.959 2.246 1.879 4.507 2.813 6.764 0.489 1.181 0.089 1.828-1.206 1.829-4.378 0.005-3.402 0.436-5.037-3.957-0.362-0.974-0.804-1.241-1.722-1.212-1.332 0.043-2.666 0.010-3.999 0.010-2.595 0-2.973 0.298-3.811 2.783-0.265 0.787-0.516 2.047-1.026 2.19-1.19 0.335-2.537 0.168-3.812 0.077-0.166-0.012-0.507-0.866-0.382-1.173 1.213-2.963 2.508-5.893 3.82-8.936zM54.605 16.967c-0.408-1.035-0.816-2.069-1.351-3.426-0.81 1.985-1.496 3.663-2.287 5.6 1.011 0 1.801 0.009 2.592-0.002 1.711-0.024 1.926-0.402 1.046-2.172z"></path>
      <path fill="#232233" style="fill: var(--color3, #232233)" d="M102.192 8.422c1.9 3.507 0.943 7.549-1.665 9.888-1.558 1.396-3.385 2.079-5.563 2.007-3.533-0.116-3.535-0.031-3.536 3.529-0 1.142-0.027 2.284 0.005 3.425 0.025 0.88-0.296 1.271-1.231 1.321-2.983 0.159-3.058 0.12-3.058-2.84-0-6.613-0.003-13.226 0.002-19.838 0.001-1.769 0.118-1.958 1.836-1.876 2.736 0.129 5.476 0.295 8.194 0.617 2.289 0.271 3.782 1.804 5.015 3.767zM91.496 15.699c0.388 0.194 0.759 0.504 1.165 0.56 1.499 0.207 2.862-0.153 4.168-0.974 1.57-0.987 1.972-3.581 0.866-5.064-1.344-1.804-3.185-1.271-4.926-1.365-0.968-0.052-1.376 0.342-1.349 1.327 0.048 1.753 0.026 3.508 0.075 5.516z"></path>
      <path fill="#232233" style="fill: var(--color3, #232233)" d="M155.791 4.021c3.347-0.005 3.347-0.005 3.347 3.142 0 5.137 0.032 10.273-0.022 15.409-0.013 1.278 0.359 1.779 1.697 1.739 2.756-0.083 5.517 0.011 8.274-0.040 1.106-0.021 1.498 0.372 1.506 1.487 0.019 2.821 0.064 2.821-2.729 2.821-3.948 0-7.896-0.034-11.842 0.019-1.245 0.017-1.775-0.308-1.764-1.676 0.058-7.038 0.031-14.078 0.022-21.117-0.001-0.977 0.034-1.874 1.51-1.785z"></path>
      <path fill="#232233" style="fill: var(--color3, #232233)" d="M147.128 28.579c-3.853-0-7.566-0.033-11.278 0.018-1.171 0.016-1.588-0.384-1.582-1.567 0.038-7.187 0.038-14.374-0.001-21.561-0.006-1.14 0.41-1.486 1.501-1.466 3.227 0.060 2.784-0.215 2.797 2.716 0.022 5.283 0.038 10.567-0.016 15.85-0.013 1.275 0.35 1.783 1.693 1.742 2.758-0.084 5.521 0.012 8.281-0.041 1.118-0.021 1.49 0.393 1.496 1.499 0.016 2.808 0.059 2.808-2.891 2.809z"></path>
      <path fill="#232233" style="fill: var(--color3, #232233)" d="M24.213 8.614c1.035 1.754 2.043 3.403 2.979 5.092 0.44 0.795 0.25 1.416-0.799 1.423-2.612 0.017-5.224 0.034-7.835-0.004-1.089-0.016-1.427-0.606-0.889-1.605 1.272-2.365 2.591-4.706 3.938-7.030 0.447-0.771 1.081-0.754 1.547-0 0.396 0.64 0.673 1.354 1.060 2.124z"></path>
    </symbol>
    <symbol id="ellipse-icon"  viewBox="0 0 82 32">
      <path d="M78.066 15.648c0 6.894-16.688 12.484-37.275 12.484s-37.275-5.589-37.275-12.484c0-6.894 16.688-12.484 37.275-12.484s37.275 5.589 37.275 12.484z"></path>
    </symbol>
  </defs>
</svg>
